<svg viewBox="0 0 800 500" xmlns="http://www.w3.org/2000/svg" font-family="'Segoe UI',sans-serif">
  <!-- Desktop background -->
  <defs>
    <linearGradient id="bg" x1="0%" y1="0%" x2="100%" y2="100%">
      <stop offset="0%" style="stop-color:#0a0a1a"/>
      <stop offset="100%" style="stop-color:#0d1b3e"/>
    </linearGradient>
    <linearGradient id="win1" x1="0%" y1="0%" x2="0%" y2="100%">
      <stop offset="0%" style="stop-color:#1e1e2e"/>
      <stop offset="100%" style="stop-color:#16162a"/>
    </linearGradient>
    <linearGradient id="win2" x1="0%" y1="0%" x2="0%" y2="100%">
      <stop offset="0%" style="stop-color:#1a2a1a"/>
      <stop offset="100%" style="stop-color:#0e1e0e"/>
    </linearGradient>
    <linearGradient id="taskbar" x1="0%" y1="0%" x2="0%" y2="100%">
      <stop offset="0%" style="stop-color:#12141e"/>
      <stop offset="100%" style="stop-color:#0c0e18"/>
    </linearGradient>
    <filter id="shadow"><feDropShadow dx="2" dy="4" stdDeviation="6" flood-opacity="0.5"/></filter>
  </defs>

  <!-- Background -->
  <rect width="800" height="500" fill="url(#bg)"/>

  <!-- Subtle grid -->
  <g opacity="0.04" stroke="#4488ff" stroke-width="0.5">
    <line x1="0" y1="50" x2="800" y2="50"/><line x1="0" y1="100" x2="800" y2="100"/>
    <line x1="0" y1="150" x2="800" y2="150"/><line x1="0" y1="200" x2="800" y2="200"/>
    <line x1="0" y1="250" x2="800" y2="250"/><line x1="0" y1="300" x2="800" y2="300"/>
    <line x1="0" y1="350" x2="800" y2="350"/><line x1="0" y1="400" x2="800" y2="400"/>
    <line x1="0" y1="450" x2="800" y2="450"/>
    <line x1="80" y1="0" x2="80" y2="500"/><line x1="160" y1="0" x2="160" y2="500"/>
    <line x1="240" y1="0" x2="240" y2="500"/><line x1="320" y1="0" x2="320" y2="500"/>
    <line x1="400" y1="0" x2="400" y2="500"/><line x1="480" y1="0" x2="480" y2="500"/>
    <line x1="560" y1="0" x2="560" y2="500"/><line x1="640" y1="0" x2="640" y2="500"/>
    <line x1="720" y1="0" x2="720" y2="500"/>
  </g>

  <!-- Sidebar -->
  <rect x="0" y="0" width="52" height="468" fill="#0e0e1a" opacity="0.95"/>
  <rect x="0" y="0" width="52" height="468" fill="none" stroke="#2a2a4a" stroke-width="1"/>
  <!-- Sidebar icons -->
  <rect x="8" y="12" width="36" height="36" rx="8" fill="#1a3a6e"/>
  <text x="26" y="36" text-anchor="middle" font-size="18" fill="white">⊞</text>
  <rect x="8" y="58" width="36" height="36" rx="8" fill="#1a4a2a"/>
  <text x="26" y="82" text-anchor="middle" font-size="16" fill="#88ff88">📁</text>
  <rect x="8" y="104" width="36" height="36" rx="8" fill="#3a2a1a"/>
  <text x="26" y="128" text-anchor="middle" font-size="16" fill="#ffaa44">📝</text>
  <rect x="8" y="150" width="36" height="36" rx="8" fill="#2a1a4a"/>
  <text x="26" y="174" text-anchor="middle" font-size="16" fill="#aa88ff">🖥</text>
  <rect x="8" y="196" width="36" height="36" rx="8" fill="#1a2a4a"/>
  <text x="26" y="220" text-anchor="middle" font-size="16" fill="#44aaff">🌐</text>
  <rect x="8" y="242" width="36" height="36" rx="8" fill="#3a1a2a"/>
  <text x="26" y="266" text-anchor="middle" font-size="16" fill="#ff88cc">🎵</text>

  <!-- File Manager Window -->
  <rect x="62" y="18" width="320" height="280" rx="6" fill="url(#win1)" filter="url(#shadow)"/>
  <rect x="62" y="18" width="320" height="28" rx="6" fill="#1a2a4a"/>
  <rect x="62" y="32" width="320" height="14" fill="#1a2a4a"/>
  <text x="72" y="35" font-size="11" fill="#88bbff" font-weight="bold">📁  File Manager</text>
  <circle cx="366" cy="32" r="5" fill="#ff5f56"/><circle cx="351" cy="32" r="5" fill="#ffbd2e"/><circle cx="336" cy="32" r="5" fill="#27c93f"/>
  <!-- FM address bar -->
  <rect x="68" y="52" width="308" height="18" rx="4" fill="#0c1220"/>
  <text x="74" y="64" font-size="9" fill="#5588aa">/home/user/Documents</text>
  <!-- FM file list -->
  <rect x="68" y="76" width="308" height="16" rx="2" fill="#1e3050"/>
  <text x="78" y="87" font-size="9" fill="#ccddff">📄  kernel.c</text>
  <text x="290" y="87" font-size="9" fill="#4466aa">237 KB</text>
  <rect x="68" y="94" width="308" height="16" rx="2" fill="transparent"/>
  <text x="78" y="105" font-size="9" fill="#aabbdd">📄  gui.c</text>
  <text x="290" y="105" font-size="9" fill="#4466aa">198 KB</text>
  <rect x="68" y="112" width="308" height="16" rx="2" fill="#1e3050"/>
  <text x="78" y="123" font-size="9" fill="#aabbdd">📄  file_manager.c</text>
  <text x="290" y="123" font-size="9" fill="#4466aa">92 KB</text>
  <rect x="68" y="130" width="308" height="16" rx="2" fill="transparent"/>
  <text x="78" y="141" font-size="9" fill="#aabbdd">📁  kernel/</text>
  <rect x="68" y="148" width="308" height="16" rx="2" fill="#1e3050"/>
  <text x="78" y="159" font-size="9" fill="#aabbdd">📄  net.c</text>
  <text x="290" y="159" font-size="9" fill="#4466aa">27 KB</text>
  <rect x="68" y="166" width="308" height="16" rx="2" fill="transparent"/>
  <text x="78" y="177" font-size="9" fill="#aabbdd">📄  e1000.c</text>
  <text x="290" y="177" font-size="9" fill="#4466aa">8.8 KB</text>
  <rect x="68" y="184" width="308" height="16" rx="2" fill="#1e3050"/>
  <text x="78" y="195" font-size="9" fill="#aabbdd">📄  acpi.c</text>
  <!-- Status bar -->
  <rect x="62" y="282" width="320" height="16" rx="0" fill="#0c1220"/>
  <text x="72" y="293" font-size="8" fill="#446688">6 items  |  /home/user/Documents</text>

  <!-- Text Editor Window -->
  <rect x="395" y="18" width="395" height="240" rx="6" fill="#14141e" filter="url(#shadow)"/>
  <rect x="395" y="18" width="395" height="28" rx="6" fill="#007acc"/>
  <rect x="395" y="32" width="395" height="14" fill="#007acc"/>
  <text x="405" y="35" font-size="11" fill="white" font-weight="bold">📝  Kal Text Editor — kernel.c</text>
  <circle cx="775" cy="32" r="5" fill="#ff5f56"/><circle cx="760" cy="32" r="5" fill="#ffbd2e"/><circle cx="745" cy="32" r="5" fill="#27c93f"/>
  <!-- Editor gutter -->
  <rect x="395" y="46" width="32" height="194" fill="#111118"/>
  <text x="399" y="58" font-size="8" fill="#334455">1</text><text x="399" y="70" font-size="8" fill="#334455">2</text>
  <text x="399" y="82" font-size="8" fill="#556677">3</text><text x="399" y="94" font-size="8" fill="#334455">4</text>
  <text x="399" y="106" font-size="8" fill="#334455">5</text><text x="399" y="118" font-size="8" fill="#334455">6</text>
  <text x="399" y="130" font-size="8" fill="#334455">7</text><text x="399" y="142" font-size="8" fill="#334455">8</text>
  <text x="399" y="154" font-size="8" fill="#334455">9</text>
  <!-- Editor text lines -->
  <rect x="427" y="48" width="363" height="12" rx="1" fill="#1a2030"/>
  <text x="430" y="58" font-size="8" fill="#6a9955">/* KalOS x86-64 Kernel — Ring 0 */</text>
  <text x="430" y="70" font-size="8" fill="#569cd6">void</text><text x="448" y="70" font-size="8" fill="#dcdcaa"> kernel_main</text><text x="514" y="70" font-size="8" fill="#cccccc">(uint64_t mb_magic) {</text>
  <text x="430" y="82" font-size="8" fill="#569cd6">    gdt_init</text><text x="472" y="82" font-size="8" fill="#cccccc">(); idt_init();</text>
  <text x="430" y="94" font-size="8" fill="#569cd6">    pci_scan_all</text><text x="490" y="94" font-size="8" fill="#cccccc">();</text>
  <text x="430" y="106" font-size="8" fill="#569cd6">    acpi_init</text><text x="474" y="106" font-size="8" fill="#cccccc">(); apic_init();</text>
  <text x="430" y="118" font-size="8" fill="#569cd6">    vesa_init</text><text x="474" y="118" font-size="8" fill="#cccccc">(); gui_init();</text>
  <text x="430" y="130" font-size="8" fill="#569cd6">    e1000_init</text><text x="478" y="130" font-size="8" fill="#cccccc">(); dhcp_discover();</text>
  <text x="430" y="142" font-size="8" fill="#569cd6">    ahci_init</text><text x="474" y="142" font-size="8" fill="#cccccc">(); shell_loop();</text>
  <text x="430" y="154" font-size="8" fill="#cccccc">}</text>
  <!-- Status bar -->
  <rect x="395" y="240" width="395" height="18" rx="0" fill="#007acc"/>
  <text x="402" y="252" font-size="8" fill="white">NORMAL  |  Ln 1 Col 1  |  kernel.c  |  UTF-8  |  C</text>

  <!-- Task Manager Window -->
  <rect x="62" y="306" width="320" height="154" rx="6" fill="#090d15" filter="url(#shadow)"/>
  <rect x="62" y="306" width="320" height="28" rx="6" fill="#0e1a2e"/>
  <rect x="62" y="320" width="320" height="14" fill="#0e1a2e"/>
  <text x="72" y="323" font-size="11" fill="#44aaff" font-weight="bold">📊  Task Manager</text>
  <circle cx="366" cy="320" r="5" fill="#ff5f56"/>
  <!-- Tab bar -->
  <rect x="62" y="334" width="80" height="16" fill="#1a3050"/>
  <text x="72" y="344" font-size="8" fill="#44aaff">Processes</text>
  <rect x="142" y="334" width="80" height="16" fill="transparent"/>
  <text x="152" y="344" font-size="8" fill="#335577">Performance</text>
  <!-- Process list header -->
  <rect x="62" y="350" width="320" height="14" fill="#0e1a2e"/>
  <text x="70" y="360" font-size="8" fill="#4477aa">Process</text>
  <text x="218" y="360" font-size="8" fill="#4477aa">CPU%</text>
  <text x="270" y="360" font-size="8" fill="#4477aa">Memory</text>
  <text x="330" y="360" font-size="8" fill="#4477aa">Status</text>
  <!-- Rows -->
  <rect x="62" y="364" width="4" height="12" fill="#44ff88"/><text x="70" y="373" font-size="8" fill="#ccddff">[kernel]</text><text x="218" y="373" font-size="8" fill="#ffaa44">4%</text><text x="270" y="373" font-size="8" fill="#88aacc">512 KB</text><text x="330" y="373" font-size="8" fill="#44ff88">Running</text>
  <rect x="62" y="378" width="4" height="12" fill="#44ff88"/><text x="70" y="387" font-size="8" fill="#ccddff">[vesa/gpu]</text><text x="218" y="387" font-size="8" fill="#44ff88">2%</text><text x="270" y="387" font-size="8" fill="#88aacc">256 KB</text><text x="330" y="387" font-size="8" fill="#44ff88">Running</text>
  <rect x="62" y="392" width="4" height="12" fill="#44ff88"/><text x="70" y="401" font-size="8" fill="#ccddff">[net/e1000]</text><text x="218" y="401" font-size="8" fill="#44ff88">1%</text><text x="270" y="401" font-size="8" fill="#88aacc">64 KB</text><text x="330" y="401" font-size="8" fill="#44ff88">Running</text>
  <rect x="62" y="406" width="4" height="12" fill="#8888ff"/><text x="70" y="415" font-size="8" fill="#ccddff">[idle]</text><text x="218" y="415" font-size="8" fill="#aaaacc">0%</text><text x="270" y="415" font-size="8" fill="#88aacc">4 KB</text><text x="330" y="415" font-size="8" fill="#8888ff">Sleeping</text>
  <rect x="62" y="420" width="4" height="12" fill="#44ff88"/><text x="70" y="429" font-size="8" fill="#ccddff">[irq/0-timer]</text><text x="218" y="429" font-size="8" fill="#44ff88">3%</text><text x="270" y="429" font-size="8" fill="#88aacc">8 KB</text><text x="330" y="429" font-size="8" fill="#44ff88">Running</text>
  <rect x="62" y="434" width="4" height="12" fill="#44ff88"/><text x="70" y="443" font-size="8" fill="#ccddff">[kalfs]</text><text x="218" y="443" font-size="8" fill="#44ff88">1%</text><text x="270" y="443" font-size="8" fill="#88aacc">128 KB</text><text x="330" y="443" font-size="8" fill="#44ff88">Running</text>
  <rect x="62" y="448" width="4" height="12" fill="#44ff88"/><text x="70" y="457" font-size="8" fill="#ccddff">[fat32]</text><text x="218" y="457" font-size="8" fill="#44ff88">0%</text><text x="270" y="457" font-size="8" fill="#88aacc">64 KB</text><text x="330" y="457" font-size="8" fill="#44ff88">Running</text>

  <!-- Terminal-style window bottom right -->
  <rect x="395" y="265" width="395" height="195" rx="6" fill="#0c0c14" filter="url(#shadow)"/>
  <rect x="395" y="265" width="395" height="28" rx="6" fill="#1a1a2e"/>
  <rect x="395" y="279" width="395" height="14" fill="#1a1a2e"/>
  <text x="405" y="282" font-size="11" fill="#aaff88" font-weight="bold">▶  KalOS Shell  [x86-64]</text>
  <circle cx="775" cy="279" r="5" fill="#ff5f56"/>
  <!-- Shell output -->
  <text x="402" y="302" font-size="8" fill="#4488ff">KalOS</text><text x="424" y="302" font-size="8" fill="#44ff88"> v2.0</text><text x="452" y="302" font-size="8" fill="#aaaacc"> Alpha — x86-64 Long Mode</text>
  <text x="402" y="314" font-size="8" fill="#4488ff">Arch:</text><text x="432" y="314" font-size="8" fill="#cccccc"> x86-64, Ring 0/3, 4-level paging</text>
  <text x="402" y="326" font-size="8" fill="#4488ff">RAM: </text><text x="432" y="326" font-size="8" fill="#cccccc"> 512 MB detected</text>
  <text x="402" y="338" font-size="8" fill="#4488ff">Net: </text><text x="432" y="338" font-size="8" fill="#44ff88"> e1000 connected — 10.0.2.15</text>
  <text x="402" y="350" font-size="8" fill="#4488ff">FS:  </text><text x="432" y="350" font-size="8" fill="#cccccc"> KalFS + FAT32 + ext2</text>
  <text x="402" y="362" font-size="8" fill="#4488ff">GPU: </text><text x="432" y="362" font-size="8" fill="#cccccc"> Bochs VGA @ 1366x768x32</text>
  <text x="402" y="374" font-size="8" fill="#aaaacc"> </text>
  <text x="402" y="388" font-size="8" fill="#44ff88">root@kalos</text><text x="458" y="388" font-size="8" fill="#cccccc">:/# </text><text x="474" y="388" font-size="8" fill="#ffffff">ls /kernel</text>
  <text x="402" y="400" font-size="8" fill="#88aacc">kernel.c  gui.c  net.c  e1000.c  ahci.c  acpi.c  pci.c</text>
  <text x="402" y="412" font-size="8" fill="#88aacc">kal_editor.c  file_manager.c  task_manager.c</text>
  <text x="402" y="428" font-size="8" fill="#44ff88">root@kalos</text><text x="458" y="428" font-size="8" fill="#cccccc">:/# </text>
  <rect x="474" y="420" width="6" height="12" fill="#ffffff" opacity="0.8"/>

  <!-- Taskbar -->
  <rect x="0" y="468" width="800" height="32" fill="url(#taskbar)"/>
  <rect x="0" y="468" width="800" height="1" fill="#2a2a4a"/>
  <!-- Taskbar items -->
  <rect x="52" y="472" width="120" height="22" rx="4" fill="#1a2a4a"/>
  <text x="62" y="487" font-size="9" fill="#88bbff">📁 File Manager</text>
  <rect x="178" y="472" width="110" height="22" rx="4" fill="#1a3050"/>
  <text x="188" y="487" font-size="9" fill="#88ffcc">📝 Kal Editor</text>
  <rect x="294" y="472" width="110" height="22" rx="4" fill="#0e1e2e"/>
  <text x="304" y="487" font-size="9" fill="#44aaff">📊 Task Manager</text>
  <rect x="410" y="472" width="80" height="22" rx="4" fill="#0e1e10"/>
  <text x="420" y="487" font-size="9" fill="#aaff88">▶ Shell</text>
  <!-- Clock -->
  <text x="730" y="487" font-size="10" fill="#88aacc">12:34</text>
  <!-- KalOS brand -->
  <text x="400" y="456" text-anchor="middle" font-size="11" fill="#2244aa" font-weight="bold" opacity="0.5">KalOS</text>
</svg>
